<svg id="svg" version="1.1" xmlns="http://www.w3.org/2000/svg" xmlns:xlink="http://www.w3.org/1999/xlink" width="400" height="400" viewBox="0, 0, 400,400"><g id="svgg"><path id="path0" d="M112.098 103.867 L 112.200 143.800 224.150 143.800 L 336.101 143.800 335.807 104.200 C 335.646 82.420,335.488 64.578,335.457 64.552 C 335.426 64.525,285.134 64.375,223.698 64.218 L 111.996 63.933 112.098 103.867 M207.909 72.100 L 207.800 79.800 199.914 79.908 L 192.029 80.017 191.914 83.908 L 191.800 87.800 187.914 87.914 L 184.029 88.029 183.914 91.914 L 183.800 95.800 175.908 95.908 L 168.017 96.017 167.908 103.908 L 167.800 111.800 151.914 111.905 L 136.029 112.009 135.914 115.905 L 135.800 119.800 124.100 119.906 L 112.400 120.012 112.400 92.206 L 112.400 64.400 160.209 64.400 L 208.017 64.400 207.909 72.100 M335.600 123.800 L 335.600 143.600 307.791 143.600 L 279.983 143.600 280.091 135.900 L 280.200 128.200 284.086 128.086 L 287.971 127.971 288.086 124.086 L 288.200 120.200 292.086 120.086 L 295.971 119.971 296.086 116.086 L 296.200 112.200 304.100 112.092 L 312.000 111.983 312.000 108.258 C 312.000 106.210,312.120 104.413,312.267 104.267 C 312.413 104.120,317.723 104.000,324.067 104.000 L 335.600 104.000 335.600 123.800 " stroke="none" fill="#248ca4" fill-rule="evenodd"></path><path id="path1" d="M151.927 59.598 L 152.053 63.598 244.127 63.699 L 336.200 63.800 336.200 104.000 L 336.200 144.200 268.101 144.301 L 200.002 144.402 199.901 208.101 L 199.800 271.800 155.916 271.902 L 112.031 272.004 111.916 280.202 L 111.800 288.401 220.100 288.400 L 328.400 288.400 328.400 276.000 L 328.400 263.600 276.400 263.600 L 224.400 263.600 224.400 208.000 L 224.400 152.400 284.400 152.400 L 344.400 152.400 344.400 104.000 L 344.400 55.600 248.100 55.599 L 151.800 55.598 151.927 59.598 M220.104 311.900 L 112.008 312.001 111.904 348.201 L 111.800 384.400 116.000 384.401 L 120.200 384.401 120.200 380.301 L 120.200 376.200 124.000 376.200 L 127.800 376.200 127.800 380.301 L 127.800 384.401 132.000 384.401 L 136.200 384.401 136.200 380.301 L 136.200 376.200 140.000 376.200 L 143.800 376.200 143.800 380.301 L 143.800 384.401 148.000 384.401 L 152.200 384.401 152.200 380.301 L 152.200 376.200 156.000 376.200 L 159.800 376.200 159.800 380.301 L 159.800 384.401 164.000 384.401 L 168.200 384.401 168.200 380.301 L 168.200 376.200 172.000 376.200 L 175.800 376.200 175.800 380.301 L 175.800 384.401 180.000 384.401 L 184.200 384.400 184.200 376.300 L 184.200 368.200 216.000 368.200 L 247.800 368.200 247.800 376.300 L 247.800 384.400 252.000 384.401 L 256.200 384.401 256.200 380.301 L 256.200 376.200 260.000 376.200 L 263.800 376.200 263.800 380.301 L 263.800 384.401 268.000 384.401 L 272.200 384.401 272.200 380.301 L 272.200 376.200 276.000 376.200 L 279.800 376.200 279.800 380.301 L 279.800 384.401 284.000 384.401 L 288.200 384.401 288.200 380.301 L 288.200 376.200 292.000 376.200 L 295.800 376.200 295.800 380.301 L 295.800 384.401 300.000 384.401 L 304.200 384.401 304.200 380.301 L 304.200 376.200 308.000 376.200 L 311.800 376.200 311.800 380.301 L 311.800 384.401 320.100 384.401 L 328.400 384.400 328.400 348.000 C 328.400 327.980,328.355 311.645,328.300 311.699 C 328.245 311.754,279.557 311.844,220.104 311.900 M127.800 324.000 L 127.800 327.800 124.000 327.800 L 120.200 327.800 120.083 324.433 C 119.920 319.752,119.737 319.950,124.093 320.085 L 127.800 320.200 127.800 324.000 M143.800 324.000 L 143.800 327.800 140.000 327.800 L 136.200 327.800 136.083 324.433 C 135.920 319.752,135.737 319.950,140.093 320.085 L 143.800 320.200 143.800 324.000 M159.800 324.000 L 159.800 327.800 156.000 327.800 L 152.200 327.800 152.083 324.433 C 151.920 319.752,151.737 319.950,156.093 320.085 L 159.800 320.200 159.800 324.000 M175.800 324.000 L 175.800 327.800 172.000 327.800 L 168.200 327.800 168.083 324.433 C 167.920 319.752,167.737 319.950,172.093 320.085 L 175.800 320.200 175.800 324.000 M191.800 324.000 L 191.800 327.800 188.000 327.800 L 184.200 327.800 184.083 324.433 C 183.920 319.752,183.737 319.950,188.093 320.085 L 191.800 320.200 191.800 324.000 M207.800 324.000 L 207.800 327.800 204.000 327.800 L 200.200 327.800 200.083 324.433 C 199.920 319.752,199.737 319.950,204.093 320.085 L 207.800 320.200 207.800 324.000 M223.800 324.000 L 223.800 327.800 220.000 327.800 L 216.200 327.800 216.083 324.433 C 215.920 319.752,215.737 319.950,220.093 320.085 L 223.800 320.200 223.800 324.000 M239.800 324.000 L 239.800 327.800 236.000 327.800 L 232.200 327.800 232.083 324.433 C 231.920 319.752,231.737 319.950,236.093 320.085 L 239.800 320.200 239.800 324.000 M255.800 324.000 L 255.800 327.800 252.000 327.800 L 248.200 327.800 248.083 324.433 C 247.920 319.752,247.737 319.950,252.093 320.085 L 255.800 320.200 255.800 324.000 M271.800 324.000 L 271.800 327.800 268.000 327.800 L 264.200 327.800 264.083 324.433 C 263.920 319.752,263.737 319.950,268.093 320.085 L 271.800 320.200 271.800 324.000 M287.800 324.000 L 287.800 327.800 284.000 327.800 L 280.200 327.800 280.083 324.433 C 279.920 319.752,279.737 319.950,284.093 320.085 L 287.800 320.200 287.800 324.000 M303.800 324.000 L 303.800 327.800 300.000 327.800 L 296.200 327.800 296.083 324.433 C 295.920 319.752,295.737 319.950,300.093 320.085 L 303.800 320.200 303.800 324.000 M319.800 324.000 L 319.800 327.800 316.000 327.800 L 312.200 327.800 312.083 324.433 C 311.920 319.752,311.737 319.950,316.093 320.085 L 319.800 320.200 319.800 324.000 M127.800 340.000 L 127.800 343.800 124.000 343.800 L 120.200 343.800 120.083 340.433 C 119.920 335.752,119.737 335.950,124.093 336.085 L 127.800 336.200 127.800 340.000 M143.800 340.000 L 143.800 343.800 140.000 343.800 L 136.200 343.800 136.083 340.433 C 135.920 335.752,135.737 335.950,140.093 336.085 L 143.800 336.200 143.800 340.000 M159.800 340.000 L 159.800 343.800 156.000 343.800 L 152.200 343.800 152.083 340.433 C 151.920 335.752,151.737 335.950,156.093 336.085 L 159.800 336.200 159.800 340.000 M175.800 340.000 L 175.800 343.800 172.000 343.800 L 168.200 343.800 168.083 340.433 C 167.920 335.752,167.737 335.950,172.093 336.085 L 175.800 336.200 175.800 340.000 M191.800 340.000 L 191.800 343.800 188.000 343.800 L 184.200 343.800 184.083 340.433 C 183.920 335.752,183.737 335.950,188.093 336.085 L 191.800 336.200 191.800 340.000 M207.800 340.000 L 207.800 343.800 204.000 343.800 L 200.200 343.800 200.083 340.433 C 199.920 335.752,199.737 335.950,204.093 336.085 L 207.800 336.200 207.800 340.000 M223.800 340.000 L 223.800 343.800 220.000 343.800 L 216.200 343.800 216.083 340.433 C 215.920 335.752,215.737 335.950,220.093 336.085 L 223.800 336.200 223.800 340.000 M239.800 340.000 L 239.800 343.800 236.000 343.800 L 232.200 343.800 232.083 340.433 C 231.920 335.752,231.737 335.950,236.093 336.085 L 239.800 336.200 239.800 340.000 M255.800 340.000 L 255.800 343.800 252.000 343.800 L 248.200 343.800 248.083 340.433 C 247.920 335.752,247.737 335.950,252.093 336.085 L 255.800 336.200 255.800 340.000 M271.800 340.000 L 271.800 343.800 268.000 343.800 L 264.200 343.800 264.083 340.433 C 263.920 335.752,263.737 335.950,268.093 336.085 L 271.800 336.200 271.800 340.000 M287.800 340.000 L 287.800 343.800 284.000 343.800 L 280.200 343.800 280.083 340.433 C 279.920 335.752,279.737 335.950,284.093 336.085 L 287.800 336.200 287.800 340.000 M303.800 340.000 L 303.800 343.800 300.000 343.800 L 296.200 343.800 296.083 340.433 C 295.920 335.752,295.737 335.950,300.093 336.085 L 303.800 336.200 303.800 340.000 M319.800 340.000 L 319.800 343.800 316.000 343.800 L 312.200 343.800 312.083 340.433 C 311.920 335.752,311.737 335.950,316.093 336.085 L 319.800 336.200 319.800 340.000 M127.800 356.000 L 127.800 359.800 124.000 359.800 L 120.200 359.800 120.083 356.433 C 119.920 351.752,119.737 351.950,124.093 352.085 L 127.800 352.200 127.800 356.000 M143.800 356.000 L 143.800 359.800 140.000 359.800 L 136.200 359.800 136.083 356.433 C 135.920 351.752,135.737 351.950,140.093 352.085 L 143.800 352.200 143.800 356.000 M159.800 356.000 L 159.800 359.800 156.000 359.800 L 152.200 359.800 152.083 356.433 C 151.920 351.752,151.737 351.950,156.093 352.085 L 159.800 352.200 159.800 356.000 M175.800 356.000 L 175.800 359.800 172.000 359.800 L 168.200 359.800 168.083 356.433 C 167.920 351.752,167.737 351.950,172.093 352.085 L 175.800 352.200 175.800 356.000 M191.800 356.000 L 191.800 359.800 188.000 359.800 L 184.200 359.800 184.083 356.433 C 183.920 351.752,183.737 351.950,188.093 352.085 L 191.800 352.200 191.800 356.000 M207.800 356.000 L 207.800 359.800 204.000 359.800 L 200.200 359.800 200.083 356.433 C 199.920 351.752,199.737 351.950,204.093 352.085 L 207.800 352.200 207.800 356.000 M223.800 356.000 L 223.800 359.800 220.000 359.800 L 216.200 359.800 216.083 356.433 C 215.920 351.752,215.737 351.950,220.093 352.085 L 223.800 352.200 223.800 356.000 M239.800 356.000 L 239.800 359.800 236.000 359.800 L 232.200 359.800 232.083 356.433 C 231.920 351.752,231.737 351.950,236.093 352.085 L 239.800 352.200 239.800 356.000 M255.800 356.000 L 255.800 359.800 252.000 359.800 L 248.200 359.800 248.083 356.433 C 247.920 351.752,247.737 351.950,252.093 352.085 L 255.800 352.200 255.800 356.000 M271.800 356.000 L 271.800 359.800 268.000 359.800 L 264.200 359.800 264.083 356.433 C 263.920 351.752,263.737 351.950,268.093 352.085 L 271.800 352.200 271.800 356.000 M287.800 356.000 L 287.800 359.800 284.000 359.800 L 280.200 359.800 280.083 356.433 C 279.920 351.752,279.737 351.950,284.093 352.085 L 287.800 352.200 287.800 356.000 M303.800 356.000 L 303.800 359.800 300.000 359.800 L 296.200 359.800 296.083 356.433 C 295.920 351.752,295.737 351.950,300.093 352.085 L 303.800 352.200 303.800 356.000 M319.800 356.000 L 319.800 359.800 316.000 359.800 L 312.200 359.800 312.083 356.433 C 311.920 351.752,311.737 351.950,316.093 352.085 L 319.800 352.200 319.800 356.000 " stroke="none" fill="#5c5c64" fill-rule="evenodd"></path><path id="path2" d="M103.606 104.008 C 103.606 130.622,103.740 152.377,103.903 152.352 C 104.066 152.326,123.865 152.327,147.900 152.353 L 191.600 152.400 191.600 208.000 L 191.600 263.600 147.900 263.647 C 123.865 263.673,104.070 263.675,103.912 263.651 C 103.754 263.627,103.624 269.170,103.624 275.967 L 103.624 288.327 107.712 288.263 L 111.800 288.200 111.908 280.102 L 112.017 272.004 155.908 271.902 L 199.800 271.800 199.901 208.101 L 200.002 144.402 268.101 144.301 L 336.200 144.200 336.200 104.000 L 336.200 63.800 244.400 63.799 L 152.600 63.797 244.300 63.900 L 336.000 64.002 336.000 104.001 L 336.000 144.000 224.065 144.000 L 112.130 144.000 111.865 125.934 C 111.419 95.541,111.526 64.634,112.080 64.080 C 112.440 63.720,117.479 63.600,132.294 63.600 L 152.029 63.600 151.914 59.700 L 151.800 55.800 127.703 55.709 L 103.606 55.618 103.606 104.008 M103.608 343.965 L 103.608 384.327 107.704 384.263 L 111.800 384.200 111.902 348.101 L 112.004 312.001 220.102 311.901 L 328.200 311.800 328.263 307.701 L 328.326 303.603 215.967 303.603 L 103.608 303.603 103.608 343.965 M120.176 320.518 C 120.060 320.820,120.018 322.582,120.083 324.433 L 120.200 327.800 124.000 327.800 L 127.800 327.800 127.800 324.000 L 127.800 320.200 124.093 320.085 C 121.241 319.996,120.338 320.096,120.176 320.518 M136.176 320.518 C 136.060 320.820,136.018 322.582,136.083 324.433 L 136.200 327.800 140.000 327.800 L 143.800 327.800 143.800 324.000 L 143.800 320.200 140.093 320.085 C 137.241 319.996,136.338 320.096,136.176 320.518 M152.176 320.518 C 152.060 320.820,152.018 322.582,152.083 324.433 L 152.200 327.800 156.000 327.800 L 159.800 327.800 159.800 324.000 L 159.800 320.200 156.093 320.085 C 153.241 319.996,152.338 320.096,152.176 320.518 M168.176 320.518 C 168.060 320.820,168.018 322.582,168.083 324.433 L 168.200 327.800 172.000 327.800 L 175.800 327.800 175.800 324.000 L 175.800 320.200 172.093 320.085 C 169.241 319.996,168.338 320.096,168.176 320.518 M184.176 320.518 C 184.060 320.820,184.018 322.582,184.083 324.433 L 184.200 327.800 188.000 327.800 L 191.800 327.800 191.800 324.000 L 191.800 320.200 188.093 320.085 C 185.241 319.996,184.338 320.096,184.176 320.518 M200.176 320.518 C 200.060 320.820,200.018 322.582,200.083 324.433 L 200.200 327.800 204.000 327.800 L 207.800 327.800 207.800 324.000 L 207.800 320.200 204.093 320.085 C 201.241 319.996,200.338 320.096,200.176 320.518 M216.176 320.518 C 216.060 320.820,216.018 322.582,216.083 324.433 L 216.200 327.800 220.000 327.800 L 223.800 327.800 223.800 324.000 L 223.800 320.200 220.093 320.085 C 217.241 319.996,216.338 320.096,216.176 320.518 M232.176 320.518 C 232.060 320.820,232.018 322.582,232.083 324.433 L 232.200 327.800 236.000 327.800 L 239.800 327.800 239.800 324.000 L 239.800 320.200 236.093 320.085 C 233.241 319.996,232.338 320.096,232.176 320.518 M248.176 320.518 C 248.060 320.820,248.018 322.582,248.083 324.433 L 248.200 327.800 252.000 327.800 L 255.800 327.800 255.800 324.000 L 255.800 320.200 252.093 320.085 C 249.241 319.996,248.338 320.096,248.176 320.518 M264.176 320.518 C 264.060 320.820,264.018 322.582,264.083 324.433 L 264.200 327.800 268.000 327.800 L 271.800 327.800 271.800 324.000 L 271.800 320.200 268.093 320.085 C 265.241 319.996,264.338 320.096,264.176 320.518 M280.176 320.518 C 280.060 320.820,280.018 322.582,280.083 324.433 L 280.200 327.800 284.000 327.800 L 287.800 327.800 287.800 324.000 L 287.800 320.200 284.093 320.085 C 281.241 319.996,280.338 320.096,280.176 320.518 M296.176 320.518 C 296.060 320.820,296.018 322.582,296.083 324.433 L 296.200 327.800 300.000 327.800 L 303.800 327.800 303.800 324.000 L 303.800 320.200 300.093 320.085 C 297.241 319.996,296.338 320.096,296.176 320.518 M312.176 320.518 C 312.060 320.820,312.018 322.582,312.083 324.433 L 312.200 327.800 316.000 327.800 L 319.800 327.800 319.800 324.000 L 319.800 320.200 316.093 320.085 C 313.241 319.996,312.338 320.096,312.176 320.518 M120.176 336.518 C 120.060 336.820,120.018 338.582,120.083 340.433 L 120.200 343.800 124.000 343.800 L 127.800 343.800 127.800 340.000 L 127.800 336.200 124.093 336.085 C 121.241 335.996,120.338 336.096,120.176 336.518 M136.176 336.518 C 136.060 336.820,136.018 338.582,136.083 340.433 L 136.200 343.800 140.000 343.800 L 143.800 343.800 143.800 340.000 L 143.800 336.200 140.093 336.085 C 137.241 335.996,136.338 336.096,136.176 336.518 M152.176 336.518 C 152.060 336.820,152.018 338.582,152.083 340.433 L 152.200 343.800 156.000 343.800 L 159.800 343.800 159.800 340.000 L 159.800 336.200 156.093 336.085 C 153.241 335.996,152.338 336.096,152.176 336.518 M168.176 336.518 C 168.060 336.820,168.018 338.582,168.083 340.433 L 168.200 343.800 172.000 343.800 L 175.800 343.800 175.800 340.000 L 175.800 336.200 172.093 336.085 C 169.241 335.996,168.338 336.096,168.176 336.518 M184.176 336.518 C 184.060 336.820,184.018 338.582,184.083 340.433 L 184.200 343.800 188.000 343.800 L 191.800 343.800 191.800 340.000 L 191.800 336.200 188.093 336.085 C 185.241 335.996,184.338 336.096,184.176 336.518 M200.176 336.518 C 200.060 336.820,200.018 338.582,200.083 340.433 L 200.200 343.800 204.000 343.800 L 207.800 343.800 207.800 340.000 L 207.800 336.200 204.093 336.085 C 201.241 335.996,200.338 336.096,200.176 336.518 M216.176 336.518 C 216.060 336.820,216.018 338.582,216.083 340.433 L 216.200 343.800 220.000 343.800 L 223.800 343.800 223.800 340.000 L 223.800 336.200 220.093 336.085 C 217.241 335.996,216.338 336.096,216.176 336.518 M232.176 336.518 C 232.060 336.820,232.018 338.582,232.083 340.433 L 232.200 343.800 236.000 343.800 L 239.800 343.800 239.800 340.000 L 239.800 336.200 236.093 336.085 C 233.241 335.996,232.338 336.096,232.176 336.518 M248.176 336.518 C 248.060 336.820,248.018 338.582,248.083 340.433 L 248.200 343.800 252.000 343.800 L 255.800 343.800 255.800 340.000 L 255.800 336.200 252.093 336.085 C 249.241 335.996,248.338 336.096,248.176 336.518 M264.176 336.518 C 264.060 336.820,264.018 338.582,264.083 340.433 L 264.200 343.800 268.000 343.800 L 271.800 343.800 271.800 340.000 L 271.800 336.200 268.093 336.085 C 265.241 335.996,264.338 336.096,264.176 336.518 M280.176 336.518 C 280.060 336.820,280.018 338.582,280.083 340.433 L 280.200 343.800 284.000 343.800 L 287.800 343.800 287.800 340.000 L 287.800 336.200 284.093 336.085 C 281.241 335.996,280.338 336.096,280.176 336.518 M296.176 336.518 C 296.060 336.820,296.018 338.582,296.083 340.433 L 296.200 343.800 300.000 343.800 L 303.800 343.800 303.800 340.000 L 303.800 336.200 300.093 336.085 C 297.241 335.996,296.338 336.096,296.176 336.518 M312.176 336.518 C 312.060 336.820,312.018 338.582,312.083 340.433 L 312.200 343.800 316.000 343.800 L 319.800 343.800 319.800 340.000 L 319.800 336.200 316.093 336.085 C 313.241 335.996,312.338 336.096,312.176 336.518 M120.176 352.518 C 120.060 352.820,120.018 354.582,120.083 356.433 L 120.200 359.800 124.000 359.800 L 127.800 359.800 127.800 356.000 L 127.800 352.200 124.093 352.085 C 121.241 351.996,120.338 352.096,120.176 352.518 M136.176 352.518 C 136.060 352.820,136.018 354.582,136.083 356.433 L 136.200 359.800 140.000 359.800 L 143.800 359.800 143.800 356.000 L 143.800 352.200 140.093 352.085 C 137.241 351.996,136.338 352.096,136.176 352.518 M152.176 352.518 C 152.060 352.820,152.018 354.582,152.083 356.433 L 152.200 359.800 156.000 359.800 L 159.800 359.800 159.800 356.000 L 159.800 352.200 156.093 352.085 C 153.241 351.996,152.338 352.096,152.176 352.518 M168.176 352.518 C 168.060 352.820,168.018 354.582,168.083 356.433 L 168.200 359.800 172.000 359.800 L 175.800 359.800 175.800 356.000 L 175.800 352.200 172.093 352.085 C 169.241 351.996,168.338 352.096,168.176 352.518 M184.176 352.518 C 184.060 352.820,184.018 354.582,184.083 356.433 L 184.200 359.800 188.000 359.800 L 191.800 359.800 191.800 356.000 L 191.800 352.200 188.093 352.085 C 185.241 351.996,184.338 352.096,184.176 352.518 M200.176 352.518 C 200.060 352.820,200.018 354.582,200.083 356.433 L 200.200 359.800 204.000 359.800 L 207.800 359.800 207.800 356.000 L 207.800 352.200 204.093 352.085 C 201.241 351.996,200.338 352.096,200.176 352.518 M216.176 352.518 C 216.060 352.820,216.018 354.582,216.083 356.433 L 216.200 359.800 220.000 359.800 L 223.800 359.800 223.800 356.000 L 223.800 352.200 220.093 352.085 C 217.241 351.996,216.338 352.096,216.176 352.518 M232.176 352.518 C 232.060 352.820,232.018 354.582,232.083 356.433 L 232.200 359.800 236.000 359.800 L 239.800 359.800 239.800 356.000 L 239.800 352.200 236.093 352.085 C 233.241 351.996,232.338 352.096,232.176 352.518 M248.176 352.518 C 248.060 352.820,248.018 354.582,248.083 356.433 L 248.200 359.800 252.000 359.800 L 255.800 359.800 255.800 356.000 L 255.800 352.200 252.093 352.085 C 249.241 351.996,248.338 352.096,248.176 352.518 M264.176 352.518 C 264.060 352.820,264.018 354.582,264.083 356.433 L 264.200 359.800 268.000 359.800 L 271.800 359.800 271.800 356.000 L 271.800 352.200 268.093 352.085 C 265.241 351.996,264.338 352.096,264.176 352.518 M280.176 352.518 C 280.060 352.820,280.018 354.582,280.083 356.433 L 280.200 359.800 284.000 359.800 L 287.800 359.800 287.800 356.000 L 287.800 352.200 284.093 352.085 C 281.241 351.996,280.338 352.096,280.176 352.518 M296.176 352.518 C 296.060 352.820,296.018 354.582,296.083 356.433 L 296.200 359.800 300.000 359.800 L 303.800 359.800 303.800 356.000 L 303.800 352.200 300.093 352.085 C 297.241 351.996,296.338 352.096,296.176 352.518 M312.176 352.518 C 312.060 352.820,312.018 354.582,312.083 356.433 L 312.200 359.800 316.000 359.800 L 319.800 359.800 319.800 356.000 L 319.800 352.200 316.093 352.085 C 313.241 351.996,312.338 352.096,312.176 352.518 M184.179 368.510 C 184.071 368.793,184.031 372.439,184.091 376.612 L 184.200 384.200 216.000 384.200 L 247.800 384.200 247.800 376.200 L 247.800 368.200 216.088 368.098 C 190.530 368.015,184.338 368.095,184.179 368.510 M120.177 376.517 C 120.061 376.817,120.019 378.669,120.083 380.632 L 120.200 384.200 124.000 384.200 L 127.800 384.200 127.800 380.200 L 127.800 376.200 124.093 376.085 C 121.247 375.997,120.338 376.097,120.177 376.517 M136.177 376.517 C 136.061 376.817,136.019 378.669,136.083 380.632 L 136.200 384.200 140.000 384.200 L 143.800 384.200 143.800 380.200 L 143.800 376.200 140.093 376.085 C 137.247 375.997,136.338 376.097,136.177 376.517 M152.177 376.517 C 152.061 376.817,152.019 378.669,152.083 380.632 L 152.200 384.200 156.000 384.200 L 159.800 384.200 159.800 380.200 L 159.800 376.200 156.093 376.085 C 153.247 375.997,152.338 376.097,152.177 376.517 M168.177 376.517 C 168.061 376.817,168.019 378.669,168.083 380.632 L 168.200 384.200 172.000 384.200 L 175.800 384.200 175.800 380.200 L 175.800 376.200 172.093 376.085 C 169.247 375.997,168.338 376.097,168.177 376.517 M256.177 376.517 C 256.061 376.817,256.019 378.669,256.083 380.632 L 256.200 384.200 260.000 384.200 L 263.800 384.200 263.800 380.200 L 263.800 376.200 260.093 376.085 C 257.247 375.997,256.338 376.097,256.177 376.517 M272.177 376.517 C 272.061 376.817,272.019 378.669,272.083 380.632 L 272.200 384.200 276.000 384.200 L 279.800 384.200 279.800 380.200 L 279.800 376.200 276.093 376.085 C 273.247 375.997,272.338 376.097,272.177 376.517 M288.177 376.517 C 288.061 376.817,288.019 378.669,288.083 380.632 L 288.200 384.200 292.000 384.200 L 295.800 384.200 295.800 380.200 L 295.800 376.200 292.093 376.085 C 289.247 375.997,288.338 376.097,288.177 376.517 M304.177 376.517 C 304.061 376.817,304.019 378.669,304.083 380.632 L 304.200 384.200 308.000 384.200 L 311.800 384.200 311.800 380.200 L 311.800 376.200 308.093 376.085 C 305.247 375.997,304.338 376.097,304.177 376.517 " stroke="none" fill="#646c6c" fill-rule="evenodd"></path><path id="path3" d="M112.400 92.206 L 112.400 120.012 124.100 119.906 L 135.800 119.800 135.914 115.905 L 136.029 112.009 151.914 111.905 L 167.800 111.800 167.908 103.908 L 168.017 96.017 175.908 95.908 L 183.800 95.800 183.914 91.914 L 184.029 88.029 187.914 87.914 L 191.800 87.800 191.914 83.908 L 192.029 80.017 199.914 79.908 L 207.800 79.800 207.909 72.100 L 208.017 64.400 160.209 64.400 L 112.400 64.400 112.400 92.206 M312.267 104.267 C 312.120 104.413,312.000 106.210,312.000 108.258 L 312.000 111.983 304.100 112.092 L 296.200 112.200 296.086 116.086 L 295.971 119.971 292.086 120.086 L 288.200 120.200 288.086 124.086 L 287.971 127.971 284.086 128.086 L 280.200 128.200 280.091 135.900 L 279.983 143.600 307.791 143.600 L 335.600 143.600 335.600 123.800 L 335.600 104.000 324.067 104.000 C 317.723 104.000,312.413 104.120,312.267 104.267 " stroke="none" fill="#1ca4c4" fill-rule="evenodd"></path><path id="path4" d="M122.300 63.900 C 127.855 63.962,136.945 63.962,142.500 63.900 C 148.055 63.837,143.510 63.786,132.400 63.786 C 121.290 63.786,116.745 63.837,122.300 63.900 M271.896 64.300 L 335.592 64.402 335.700 84.101 L 335.808 103.800 335.904 83.900 L 336.000 64.000 272.100 64.099 L 208.200 64.198 271.896 64.300 M111.789 92.200 C 111.789 107.600,111.839 113.842,111.900 106.071 C 111.961 98.300,111.961 85.700,111.900 78.071 C 111.839 70.442,111.789 76.800,111.789 92.200 M219.500 143.900 C 230.555 143.959,248.645 143.959,259.700 143.900 C 270.755 143.841,261.710 143.792,239.600 143.792 C 217.490 143.792,208.445 143.841,219.500 143.900 " stroke="none" fill="#3c847c" fill-rule="evenodd"></path></g></svg>